<svg width="18" height="18" viewBox="0 0 18 18" fill="none" xmlns="http://www.w3.org/2000/svg">
<path fill-rule="evenodd" clip-rule="evenodd" d="M11.4067 9.34719C11.4067 8.1314 10.4208 7.14551 9.20498 7.14551C7.98919 7.14551 7.0033 8.1314 7.0033 9.34719C7.0033 10.563 7.98919 11.5489 9.20498 11.5489C10.4208 11.5489 11.4067 10.563 11.4067 9.34719Z" stroke="white" stroke-width="1.05" stroke-linecap="round" stroke-linejoin="round"/>
<path fill-rule="evenodd" clip-rule="evenodd" d="M9.2048 14.7393C14.8365 14.7393 15.507 13.0519 15.507 9.39568C15.507 6.83294 15.1681 5.46168 13.0334 4.8722C12.8374 4.81031 12.6201 4.69241 12.444 4.49862C12.1595 4.18694 11.9517 3.22978 11.265 2.9402C10.5783 2.65136 7.82027 2.66462 7.14459 2.9402C6.46964 3.21652 6.25006 4.18694 5.96564 4.49862C5.78954 4.69241 5.5729 4.81031 5.37617 4.8722C3.24154 5.46168 2.90259 6.83294 2.90259 9.39568C2.90259 13.0519 3.57311 14.7393 9.2048 14.7393Z" stroke="white" stroke-width="1.05" stroke-linecap="round" stroke-linejoin="round"/>
<path d="M12.6432 6.89883H12.6495" stroke="white" stroke-width="1.05" stroke-linecap="round" stroke-linejoin="round"/>
</svg>
