<svg width="220" height="126" viewBox="0 0 220 126" fill="none" xmlns="http://www.w3.org/2000/svg">
<path fill-rule="evenodd" clip-rule="evenodd" d="M210.17 18.8853C215.235 18.8853 219.34 22.737 219.34 27.4883C219.34 32.2396 215.235 36.0913 210.17 36.0913H157.77C162.835 36.0913 166.94 39.943 166.94 44.6943C166.94 49.4457 162.835 53.2974 157.77 53.2974H186.59C191.655 53.2974 195.76 57.1491 195.76 61.9004C195.76 66.6517 191.655 70.5034 186.59 70.5034H173.262C166.877 70.5034 161.7 74.3551 161.7 79.1065C161.7 82.274 164.32 85.1417 169.56 87.7095C174.625 87.7095 178.73 91.5612 178.73 96.3125C178.73 101.064 174.625 104.916 169.56 104.916H60.8303C55.7659 104.916 51.6603 101.064 51.6603 96.3125C51.6603 91.5612 55.7659 87.7095 60.8303 87.7095H9.74031C4.67586 87.7095 0.570312 83.8578 0.570312 79.1065C0.570312 74.3551 4.67586 70.5034 9.74031 70.5034H62.1403C67.2048 70.5034 71.3103 66.6517 71.3103 61.9004C71.3103 57.1491 67.2048 53.2974 62.1403 53.2974H29.3903C24.3259 53.2974 20.2203 49.4457 20.2203 44.6943C20.2203 39.943 24.3259 36.0913 29.3903 36.0913H81.7903C76.7259 36.0913 72.6203 32.2396 72.6203 27.4883C72.6203 22.737 76.7259 18.8853 81.7903 18.8853H210.17ZM210.17 53.2974C215.235 53.2974 219.34 57.1491 219.34 61.9004C219.34 66.6517 215.235 70.5034 210.17 70.5034C205.106 70.5034 201 66.6517 201 61.9004C201 57.1491 205.106 53.2974 210.17 53.2974Z" fill="#D3D6D8"/>
<path fill-rule="evenodd" clip-rule="evenodd" d="M140.31 17.6553L152.496 101.034L153.59 109.399C153.943 112.094 151.901 114.547 149.028 114.878L72.3142 123.715C69.4418 124.045 66.8274 122.129 66.4747 119.434L54.664 29.1916C54.4877 27.8442 55.509 26.6178 56.9452 26.4524C56.9543 26.4514 56.9633 26.4504 56.9724 26.4494L63.3369 25.7796M68.4834 25.238L74.4925 24.6056Z" fill="white"/>
<path d="M141.934 17.4436C141.803 16.5485 140.97 15.9177 140.073 16.0346C139.177 16.1515 138.556 16.9719 138.687 17.867L141.934 17.4436ZM152.496 101.034L154.122 100.847C154.121 100.839 154.12 100.831 154.119 100.823L152.496 101.034ZM153.59 109.399L155.217 109.212L153.59 109.399ZM149.028 114.878L149.241 116.501L149.028 114.878ZM72.3142 123.715L72.5267 125.338L72.3142 123.715ZM66.4747 119.434L68.1014 119.247L66.4747 119.434ZM54.664 29.1916L56.2908 29.0042L54.664 29.1916ZM56.9452 26.4524L57.1577 28.0761L56.9452 26.4524ZM56.9724 26.4494L57.1689 28.0748L56.9724 26.4494ZM63.5334 27.405C64.4329 27.3104 65.0742 26.5059 64.9656 25.6082C64.8571 24.7105 64.0399 24.0595 63.1404 24.1542L63.5334 27.405ZM68.287 23.6126C67.3874 23.7073 66.7462 24.5117 66.8547 25.4094C66.9632 26.3071 67.7804 26.9581 68.6799 26.8634L68.287 23.6126ZM74.689 26.2311C75.5885 26.1364 76.2297 25.3319 76.1212 24.4342C76.0127 23.5365 75.1955 22.8856 74.296 22.9802L74.689 26.2311ZM138.687 17.867L150.872 101.246L154.119 100.823L141.934 17.4436L138.687 17.867ZM150.869 101.222L151.964 109.587L155.217 109.212L154.122 100.847L150.869 101.222ZM151.964 109.587C152.187 111.291 150.886 113.016 148.816 113.254L149.241 116.501C152.915 116.078 155.699 112.897 155.217 109.212L151.964 109.587ZM148.816 113.254L72.1017 122.091L72.5267 125.338L149.241 116.501L148.816 113.254ZM72.1017 122.091C70.0314 122.329 68.3245 120.952 68.1014 119.247L64.8479 119.622C65.3302 123.307 68.8523 125.762 72.5267 125.338L72.1017 122.091ZM68.1014 119.247L56.2908 29.0042L53.0373 29.379L64.8479 119.622L68.1014 119.247ZM56.2908 29.0042C56.244 28.6468 56.5236 28.1491 57.1577 28.0761L56.7327 24.8287C54.4944 25.0866 52.7314 27.0417 53.0373 29.379L56.2908 29.0042ZM57.1577 28.0761C57.1614 28.0756 57.1652 28.0752 57.1689 28.0748L56.7759 24.824C56.7615 24.8255 56.7471 24.8271 56.7327 24.8287L57.1577 28.0761ZM57.1689 28.0748L63.5334 27.405L63.1404 24.1542L56.7759 24.824L57.1689 28.0748ZM68.6799 26.8634L74.689 26.2311L74.296 22.9802L68.287 23.6126L68.6799 26.8634Z" fill="#191A2F"/>
<path fill-rule="evenodd" clip-rule="evenodd" d="M136.994 22.907L148.024 98.4707L149.016 106.052C149.335 108.494 147.509 110.714 144.937 111.01L76.238 118.924C73.6657 119.22 71.3213 117.48 71.0017 115.038L60.3459 33.6193C60.1581 32.1846 61.1712 30.8872 62.6086 30.7217L71.1051 29.7429" fill="#B6BBBE"/>
<path d="M83.9802 2.0877H143.757C144.672 2.0877 145.553 2.43611 146.221 3.06216L163.734 19.4826C164.461 20.1636 164.873 21.1149 164.873 22.1106V98.4465C164.873 100.436 163.26 102.049 161.27 102.049H83.9802C81.9906 102.049 80.3777 100.436 80.3777 98.4465V5.69019C80.3777 3.70059 81.9906 2.0877 83.9802 2.0877Z" fill="white" stroke="#191A2F" stroke-width="3.275"/>
<path d="M144.24 3.40405V17.657C144.24 19.6933 146 21.344 148.17 21.344H158.563" stroke="#191A2F" stroke-width="3.275" stroke-linecap="round" stroke-linejoin="round"/>
<path d="M93.5801 84.022H127.64M93.5801 21.3428H127.64H93.5801ZM93.5801 36.0908H149.91H93.5801ZM93.5801 52.0679H149.91H93.5801ZM93.5801 68.0449H149.91H93.5801Z" stroke="#6C787C" stroke-width="3.275" stroke-linecap="round" stroke-linejoin="round"/>
</svg>
