<svg width="121" height="40" viewBox="0 0 121 40" fill="none" xmlns="http://www.w3.org/2000/svg">
<g clip-path="url(#clip0_4768_14310)">
<path fill-rule="evenodd" clip-rule="evenodd" d="M18.8352 0.00195312H13.988V14.2198H5.39757V18.7829H14.2279L18.8352 14.0762V0.00195312ZM40.1298 18.7829V13.9315H25.9244V5.33381H21.3652V14.1719L26.0684 18.7831H40.1298V18.7829ZM21.3749 40.0338H26.2219V25.8163H34.8121V21.2531H25.982L21.3749 25.9607V40.0338ZM0.080101 21.2531V26.1045H14.2856V34.7021H18.8448V25.8643L14.1416 21.2531H0.080101Z" fill="#9F9EFE"/>
<path d="M46.5105 11.8421V10.0599H58.9533V11.8421H53.7364V26.6504H51.7274V11.8421H46.5105ZM65.2072 26.9096C64.0082 26.9096 62.974 26.645 62.1045 26.1157C61.2405 25.5811 60.5735 24.8358 60.1036 23.8799C59.6392 22.9186 59.407 21.8007 59.407 20.5262C59.407 19.2516 59.6392 18.1283 60.1036 17.1562C60.5735 16.1787 61.227 15.4173 62.064 14.8718C62.9065 14.3209 63.8894 14.0455 65.0127 14.0455C65.6608 14.0455 66.3008 14.1535 66.9326 14.3696C67.5645 14.5856 68.1397 14.9366 68.6581 15.4227C69.1766 15.9033 69.5897 16.5406 69.8975 17.3345C70.2054 18.1283 70.3593 19.1058 70.3593 20.2669V21.077H60.7679V19.4245H68.4151C68.4151 18.7224 68.2747 18.0959 67.9938 17.5451C67.7184 16.9942 67.3242 16.5595 66.8111 16.2408C66.3035 15.9222 65.704 15.7629 65.0127 15.7629C64.2513 15.7629 63.5924 15.9519 63.0361 16.3299C62.4853 16.7026 62.0613 17.1886 61.7643 17.7881C61.4673 18.3876 61.3188 19.0302 61.3188 19.7161V20.8178C61.3188 21.7575 61.4808 22.5541 61.8048 23.2075C62.1342 23.8556 62.5906 24.3498 63.1739 24.69C63.7571 25.0248 64.4349 25.1922 65.2072 25.1922C65.7094 25.1922 66.1631 25.122 66.5681 24.9816C66.9785 24.8358 67.3323 24.6198 67.6293 24.3336C67.9263 24.0419 68.1559 23.6801 68.3179 23.248L70.1649 23.7665C69.9704 24.393 69.6437 24.9438 69.1847 25.4191C68.7256 25.8889 68.1586 26.2562 67.4835 26.5208C66.8084 26.78 66.0496 26.9096 65.2072 26.9096ZM75.1793 10.0599V26.6504H73.2675V10.0599H75.1793ZM83.8978 26.9096C82.6988 26.9096 81.6646 26.645 80.7952 26.1157C79.9311 25.5811 79.2641 24.8358 78.7943 23.8799C78.3298 22.9186 78.0976 21.8007 78.0976 20.5262C78.0976 19.2516 78.3298 18.1283 78.7943 17.1562C79.2641 16.1787 79.9176 15.4173 80.7547 14.8718C81.5971 14.3209 82.58 14.0455 83.7033 14.0455C84.3514 14.0455 84.9914 14.1535 85.6232 14.3696C86.2551 14.5856 86.8303 14.9366 87.3487 15.4227C87.8672 15.9033 88.2803 16.5406 88.5881 17.3345C88.896 18.1283 89.0499 19.1058 89.0499 20.2669V21.077H79.4585V19.4245H87.1057C87.1057 18.7224 86.9653 18.0959 86.6844 17.5451C86.409 16.9942 86.0148 16.5595 85.5017 16.2408C84.9941 15.9222 84.3946 15.7629 83.7033 15.7629C82.9419 15.7629 82.283 15.9519 81.7267 16.3299C81.1759 16.7026 80.752 17.1886 80.4549 17.7881C80.1579 18.3876 80.0094 19.0302 80.0094 19.7161V20.8178C80.0094 21.7575 80.1714 22.5541 80.4954 23.2075C80.8249 23.8556 81.2812 24.3498 81.8645 24.69C82.4477 25.0248 83.1255 25.1922 83.8978 25.1922C84.4 25.1922 84.8537 25.122 85.2587 24.9816C85.6691 24.8358 86.0229 24.6198 86.3199 24.3336C86.6169 24.0419 86.8465 23.6801 87.0085 23.248L88.8555 23.7665C88.661 24.393 88.3343 24.9438 87.8753 25.4191C87.4162 25.8889 86.8492 26.2562 86.1741 26.5208C85.499 26.78 84.7403 26.9096 83.8978 26.9096ZM91.9581 26.6504V14.2075H93.8699V26.6504H91.9581ZM92.9302 12.1337C92.5575 12.1337 92.2362 12.0068 91.9662 11.753C91.7016 11.4992 91.5692 11.194 91.5692 10.8376C91.5692 10.4812 91.7016 10.176 91.9662 9.9222C92.2362 9.66838 92.5575 9.54146 92.9302 9.54146C93.3028 9.54146 93.6214 9.66838 93.8861 9.9222C94.1561 10.176 94.2911 10.4812 94.2911 10.8376C94.2911 11.194 94.1561 11.4992 93.8861 11.753C93.6214 12.0068 93.3028 12.1337 92.9302 12.1337ZM102.426 26.9096C101.303 26.9096 100.317 26.6423 99.4696 26.1076C98.6271 25.573 97.9682 24.825 97.493 23.8637C97.0231 22.9024 96.7882 21.7791 96.7882 20.4938C96.7882 19.1976 97.0231 18.0662 97.493 17.0995C97.9682 16.1328 98.6271 15.3822 99.4696 14.8475C100.317 14.3128 101.303 14.0455 102.426 14.0455C103.55 14.0455 104.533 14.3128 105.375 14.8475C106.223 15.3822 106.882 16.1328 107.352 17.0995C107.827 18.0662 108.065 19.1976 108.065 20.4938C108.065 21.7791 107.827 22.9024 107.352 23.8637C106.882 24.825 106.223 25.573 105.375 26.1076C104.533 26.6423 103.55 26.9096 102.426 26.9096ZM102.426 25.1922C103.28 25.1922 103.982 24.9735 104.533 24.5361C105.083 24.0986 105.491 23.5235 105.756 22.8106C106.02 22.0977 106.153 21.3255 106.153 20.4938C106.153 19.6621 106.02 18.8871 105.756 18.1688C105.491 17.4506 105.083 16.87 104.533 16.4272C103.982 15.9843 103.28 15.7629 102.426 15.7629C101.573 15.7629 100.871 15.9843 100.32 16.4272C99.7693 16.87 99.3616 17.4506 99.0969 18.1688C98.8323 18.8871 98.7 19.6621 98.7 20.4938C98.7 21.3255 98.8323 22.0977 99.0969 22.8106C99.3616 23.5235 99.7693 24.0986 100.32 24.5361C100.871 24.9735 101.573 25.1922 102.426 25.1922ZM119.797 16.9942L118.079 17.4803C117.971 17.194 117.812 16.9159 117.601 16.6459C117.396 16.3705 117.115 16.1436 116.759 15.9654C116.402 15.7872 115.946 15.6981 115.39 15.6981C114.628 15.6981 113.994 15.8736 113.486 16.2246C112.984 16.5703 112.733 17.0104 112.733 17.5451C112.733 18.0203 112.905 18.3957 113.251 18.6711C113.597 18.9465 114.137 19.176 114.871 19.3597L116.718 19.8133C117.831 20.0833 118.66 20.4965 119.205 21.0527C119.751 21.6036 120.023 22.3138 120.023 23.1832C120.023 23.8961 119.818 24.5334 119.408 25.095C119.003 25.6567 118.436 26.0995 117.707 26.4236C116.977 26.7476 116.13 26.9096 115.163 26.9096C113.894 26.9096 112.843 26.6342 112.012 26.0833C111.18 25.5325 110.653 24.7278 110.432 23.6693L112.247 23.2156C112.419 23.8853 112.746 24.3876 113.227 24.7224C113.713 25.0572 114.347 25.2246 115.13 25.2246C116.022 25.2246 116.729 25.0356 117.253 24.6576C117.782 24.2742 118.047 23.8151 118.047 23.2805C118.047 22.8484 117.896 22.4866 117.593 22.1949C117.291 21.8979 116.826 21.6765 116.2 21.5307L114.126 21.0446C112.986 20.7746 112.149 20.3561 111.615 19.789C111.085 19.2165 110.821 18.501 110.821 17.6423C110.821 16.9402 111.018 16.3191 111.412 15.7791C111.812 15.239 112.355 14.8151 113.04 14.5073C113.732 14.1994 114.515 14.0455 115.39 14.0455C116.621 14.0455 117.588 14.3155 118.29 14.8556C118.997 15.3957 119.5 16.1085 119.797 16.9942Z" fill="#191A2F"/>
</g>
<defs>
<clipPath id="clip0_4768_14310">
<rect width="120.468" height="40" fill="white"/>
</clipPath>
</defs>
</svg>
