<svg width="96" height="59" viewBox="0 0 96 59" fill="none" xmlns="http://www.w3.org/2000/svg">
<path fill-rule="evenodd" clip-rule="evenodd" d="M91.904 8.68C94.1153 8.68 95.908 10.4726 95.908 12.684C95.908 14.8953 94.1153 16.688 91.904 16.688H69.024C71.2353 16.688 73.028 18.4806 73.028 20.692C73.028 22.9033 71.2353 24.696 69.024 24.696H81.608C83.8193 24.696 85.612 26.4886 85.612 28.7C85.612 30.9113 83.8193 32.704 81.608 32.704H75.7885C73.0003 32.704 70.74 34.4966 70.74 36.708C70.74 38.1822 71.884 39.5169 74.172 40.712C76.3833 40.712 78.176 42.5046 78.176 44.716C78.176 46.9273 76.3833 48.72 74.172 48.72H26.696C24.4846 48.72 22.692 46.9273 22.692 44.716C22.692 42.5046 24.4846 40.712 26.696 40.712H4.388C2.17665 40.712 0.383999 38.9193 0.383999 36.708C0.383999 34.4966 2.17665 32.704 4.388 32.704H27.268C29.4793 32.704 31.272 30.9113 31.272 28.7C31.272 26.4886 29.4793 24.696 27.268 24.696H12.968C10.7567 24.696 8.964 22.9033 8.964 20.692C8.964 18.4806 10.7567 16.688 12.968 16.688H35.848C33.6366 16.688 31.844 14.8953 31.844 12.684C31.844 10.4726 33.6366 8.68 35.848 8.68H91.904ZM91.904 24.696C94.1153 24.696 95.908 26.4886 95.908 28.7C95.908 30.9113 94.1153 32.704 91.904 32.704C89.6926 32.704 87.9 30.9113 87.9 28.7C87.9 26.4886 89.6926 24.696 91.904 24.696Z" fill="#D3D6D8"/>
<path fill-rule="evenodd" clip-rule="evenodd" d="M61.4003 8.10805L66.721 46.9141L67.199 50.8073C67.353 52.0615 66.4611 53.2031 65.2069 53.3571L31.7105 57.4699C30.4563 57.6239 29.3147 56.732 29.1607 55.4778L24.0037 13.4773C23.9267 12.8502 24.3726 12.2794 24.9997 12.2024C25.0037 12.2019 25.0077 12.2014 25.0116 12.201L27.7906 11.8893M30.0377 11.637L32.6615 11.3427Z" fill="white"/>
<path d="M62.1087 8.01092C62.0551 7.6197 61.6944 7.34603 61.3032 7.39967C60.912 7.45331 60.6383 7.81395 60.692 8.20517L62.1087 8.01092ZM66.721 46.9141L67.4307 46.8269L67.4294 46.817L66.721 46.9141ZM67.199 50.8073L67.9087 50.7202L67.199 50.8073ZM65.2069 53.3571L65.2941 54.0667L65.2069 53.3571ZM31.7105 57.4699L31.7976 58.1796L31.7105 57.4699ZM29.1607 55.4778L29.8704 55.3907L29.1607 55.4778ZM25.0116 12.201L25.0913 12.9115L25.0913 12.9115L25.0116 12.201ZM27.8703 12.5998C28.2627 12.5558 28.5452 12.202 28.5012 11.8095C28.4571 11.4171 28.1033 11.1347 27.7109 11.1787L27.8703 12.5998ZM29.958 10.9264C29.5656 10.9705 29.2832 11.3243 29.3272 11.7167C29.3712 12.1091 29.725 12.3916 30.1174 12.3475L29.958 10.9264ZM32.7412 12.0532C33.1336 12.0092 33.4161 11.6554 33.3721 11.263C33.328 10.8705 32.9742 10.5881 32.5818 10.6321L32.7412 12.0532ZM60.692 8.20517L66.0126 47.0112L67.4294 46.817L62.1087 8.01092L60.692 8.20517ZM66.0113 47.0012L66.4894 50.8944L67.9087 50.7202L67.4307 46.8269L66.0113 47.0012ZM66.4894 50.8944C66.5952 51.7567 65.9821 52.5415 65.1198 52.6474L65.2941 54.0667C66.9402 53.8646 68.1108 52.3663 67.9087 50.7202L66.4894 50.8944ZM65.1198 52.6474L31.6233 56.7603L31.7976 58.1796L65.2941 54.0667L65.1198 52.6474ZM31.6233 56.7603C30.7611 56.8661 29.9762 56.2529 29.8704 55.3907L28.451 55.565C28.6531 57.2111 30.1515 58.3817 31.7976 58.1796L31.6233 56.7603ZM29.8704 55.3907L24.7133 13.3901L23.294 13.5644L28.451 55.565L29.8704 55.3907ZM24.7133 13.3901C24.6845 13.155 24.8517 12.9409 25.0869 12.912L24.9126 11.4927C23.8935 11.6178 23.1689 12.5454 23.294 13.5644L24.7133 13.3901ZM25.0869 12.912C25.0884 12.9119 25.0898 12.9117 25.0913 12.9115L24.9319 11.4904C24.9255 11.4912 24.919 11.4919 24.9126 11.4927L25.0869 12.912ZM25.0913 12.9115L27.8703 12.5998L27.7109 11.1787L24.9319 11.4904L25.0913 12.9115ZM30.1174 12.3475L32.7412 12.0532L32.5818 10.6321L29.958 10.9264L30.1174 12.3475Z" fill="#23343B"/>
<path fill-rule="evenodd" clip-rule="evenodd" d="M59.9521 10.5505L64.7681 45.7192L65.2013 49.2474C65.3409 50.3841 64.5435 51.4173 63.4204 51.5552L33.4235 55.2383C32.3004 55.3762 31.2767 54.5666 31.1372 53.43L26.4754 15.4626C26.3984 14.8355 26.8443 14.2647 27.4714 14.1877L31.1823 13.7321" fill="#B6BBBE"/>
<path d="M36.8044 0.814609H62.8628C63.2798 0.814609 63.6798 0.980202 63.9748 1.27499L71.6643 8.95976C71.9595 9.25478 72.1254 9.65503 72.1254 10.0724V45.8596C72.1254 46.7284 71.4211 47.4326 70.5524 47.4326H36.8044C35.9356 47.4326 35.2314 46.7284 35.2314 45.8596V2.38761C35.2314 1.51887 35.9356 0.814609 36.8044 0.814609Z" fill="white" stroke="#23343B" stroke-width="1.43"/>
<path d="M63.1162 1.47461V8.10819C63.1162 9.05591 63.8845 9.82419 64.8322 9.82419H69.3702" stroke="#23343B" stroke-width="1.43" stroke-linecap="round" stroke-linejoin="round"/>
<path d="M40.9961 38.9962H55.8681M40.9961 9.82422H55.8681H40.9961ZM40.9961 16.6882H65.5921H40.9961ZM40.9961 24.1242H65.5921H40.9961ZM40.9961 31.5602H65.5921H40.9961Z" stroke="#6C787C" stroke-width="1.43" stroke-linecap="round" stroke-linejoin="round"/>
</svg>
