<svg width="25" height="24" viewBox="0 0 25 24" fill="none" xmlns="http://www.w3.org/2000/svg">
<path d="M10.0437 10.883C10.2768 10.7143 10.3893 10.4357 10.3893 10.0527C10.3973 9.87054 10.3598 9.69107 10.2795 9.52768C10.2071 9.39643 10.1 9.28661 9.96875 9.20893C9.83266 9.1264 9.68151 9.07177 9.52411 9.04821C9.35268 9.01607 9.17857 9 9.00714 9.00268H7.12411V11.1375H9.1625C9.51339 11.1402 9.81071 11.0545 10.0437 10.883ZM10.3598 12.8116C10.0973 12.6107 9.74643 12.5116 9.30982 12.5116H7.11875V15.0295H9.26696C9.46786 15.0295 9.65268 15.0107 9.83214 14.9732C10.0019 14.94 10.1638 14.8745 10.3089 14.7804C10.4455 14.692 10.5554 14.5714 10.6384 14.4161C10.7188 14.2607 10.7589 14.0625 10.7589 13.8241C10.7589 13.35 10.625 13.0152 10.3598 12.8116ZM12.5 0C5.87321 0 0.5 5.37321 0.5 12C0.5 18.6268 5.87321 24 12.5 24C19.1268 24 24.5 18.6268 24.5 12C24.5 5.37321 19.1268 0 12.5 0ZM14.817 7.68482H18.5241V8.5875H14.817V7.68482ZM12.5 15.1286C12.3266 15.4577 12.079 15.742 11.7768 15.9589C11.4607 16.1786 11.1098 16.3393 10.7375 16.433C10.348 16.5374 9.94613 16.5888 9.54286 16.5857H5.10714V7.44911H9.41964C9.85625 7.44911 10.2527 7.48929 10.6143 7.56429C10.9732 7.63929 11.2786 7.76786 11.5357 7.94196C11.7902 8.11607 11.9911 8.34911 12.133 8.63839C12.2723 8.925 12.3446 9.28393 12.3446 9.70982C12.3446 10.1705 12.2402 10.5509 12.0312 10.8589C11.8196 11.167 11.5143 11.4161 11.0991 11.6116C11.6643 11.7723 12.0795 12.0589 12.3527 12.4607C12.6313 12.8679 12.7679 13.3554 12.7679 13.9286C12.7679 14.3946 12.6795 14.7937 12.5 15.1286ZM19.9679 13.7143H15.1893C15.1893 14.2339 15.3688 14.7321 15.6393 15C15.9125 15.2652 16.3036 15.3991 16.8152 15.3991C17.1848 15.3991 17.4982 15.3054 17.7661 15.1205C18.0312 14.9357 18.192 14.7402 18.2509 14.5366H19.8527C19.5955 15.3321 19.2045 15.9 18.6741 16.2429C18.1491 16.5857 17.5063 16.7571 16.7589 16.7571C16.2366 16.7571 15.7679 16.6714 15.3473 16.508C14.9429 16.35 14.5786 16.1089 14.2786 15.7982C13.9828 15.4791 13.7541 15.1038 13.6062 14.6946C13.4429 14.242 13.3625 13.7652 13.3679 13.2857C13.3679 12.7902 13.4509 12.3295 13.6116 11.9009C13.9196 11.0679 14.5598 10.4009 15.3768 10.0554C15.8134 9.87321 16.2821 9.78214 16.7563 9.7875C17.3188 9.7875 17.8063 9.89464 18.2295 10.1143C18.6369 10.324 18.9906 10.6246 19.2634 10.9929C19.5339 11.3598 19.7241 11.7777 19.8446 12.2491C19.9598 12.7125 20 13.2 19.9679 13.7143ZM16.7 11.1536C16.4107 11.1536 16.167 11.2045 15.9795 11.3036C15.792 11.4027 15.6366 11.5259 15.5188 11.6679C15.4065 11.8049 15.3236 11.9635 15.275 12.1339C15.2321 12.2759 15.2027 12.4205 15.192 12.5679H18.1518C18.1089 12.1045 17.9482 11.7616 17.7339 11.5205C17.5089 11.2821 17.1473 11.1536 16.7 11.1536Z" fill="#626262"/>
</svg>
