<svg width="22" height="22" viewBox="0 0 22 22" fill="none" xmlns="http://www.w3.org/2000/svg">
<path fill-rule="evenodd" clip-rule="evenodd" d="M15.2649 20.8103C15.2979 20.9864 15.1987 21.1735 15.0337 21.2395C13.7901 21.7347 12.4256 21.9988 11.017 21.9988C8.58484 21.9988 6.33979 21.2175 4.52397 19.8749C4.3699 19.7648 4.32592 19.5447 4.42497 19.3797C5.03024 18.3012 7.39626 14.8346 12.6236 12.8977C12.8217 12.8207 13.0418 12.9197 13.1078 13.1178C14.4174 16.6284 15.0338 19.5998 15.2649 20.8103Z" fill="#626262"/>
<path fill-rule="evenodd" clip-rule="evenodd" d="M21.8006 13.0714C21.2944 15.7786 19.7756 18.1337 17.6516 19.7404C17.4205 19.9165 17.0904 19.7844 17.0353 19.5093C16.8042 18.3207 16.243 15.7566 15.1645 12.7082C15.0875 12.4771 15.2416 12.224 15.4838 12.191C18.224 11.8608 20.6231 12.3891 21.5255 12.6312C21.7126 12.6972 21.8336 12.8843 21.8006 13.0714Z" fill="#626262"/>
<path fill-rule="evenodd" clip-rule="evenodd" d="M21.548 10.7933C20.4255 10.5952 17.5642 10.177 14.6369 10.4961C14.4608 10.5182 14.3067 10.4191 14.2297 10.254C14.1857 10.155 14.1527 10.0559 14.1086 9.9569C13.9326 9.54972 13.7455 9.13153 13.5584 8.72432C13.4593 8.52623 13.5584 8.28411 13.7565 8.19607C16.8379 6.86447 18.5546 5.14769 19.2259 4.37734C19.391 4.19026 19.6772 4.20128 19.8312 4.39937C21.0968 6.08314 21.8781 8.14105 21.9992 10.3641C22.0102 10.6392 21.7901 10.8373 21.548 10.7933Z" fill="#626262"/>
<path fill-rule="evenodd" clip-rule="evenodd" d="M18.082 3.06036C17.5097 3.75367 15.903 5.4044 12.8546 6.61495C12.6785 6.69198 12.4695 6.61493 12.3704 6.43886C10.9618 3.8857 9.46498 1.73974 8.77171 0.771303C8.60664 0.540198 8.73873 0.21006 9.01389 0.16604C9.65218 0.0559905 10.3235 0.000976562 11.0058 0.000976562C13.669 0.000976562 16.1231 0.947393 18.027 2.53211C18.192 2.65317 18.214 2.89529 18.082 3.06036Z" fill="#626262"/>
<path fill-rule="evenodd" clip-rule="evenodd" d="M9.91687 7.51493C5.74592 8.5604 2.05921 8.70348 0.716607 8.72549C0.463492 8.72549 0.276441 8.48338 0.342471 8.24127C1.13483 5.15987 3.24777 2.58471 6.03203 1.16507C6.19711 1.07703 6.4062 1.13204 6.51625 1.28611C7.08851 2.07847 8.64021 4.31249 10.1589 6.94268C10.2799 7.16278 10.17 7.4489 9.91687 7.51493Z" fill="#626262"/>
<path fill-rule="evenodd" clip-rule="evenodd" d="M12.0064 10.5514C12.1054 10.7605 11.9845 11.0136 11.7644 11.0906C6.88911 12.6643 3.97279 16.5712 3.09239 17.9138C2.94932 18.1339 2.64119 18.1449 2.47612 17.9468C0.935423 16.054 0 13.8859 0 11.2557V11.0576C0 10.8375 0.176058 10.6614 0.396157 10.6724C1.78278 10.7275 6.30585 10.5404 11.005 9.18678C11.1811 9.13175 11.3791 9.2199 11.4561 9.38498C11.6432 9.77015 11.8303 10.1552 12.0064 10.5514Z" fill="#626262"/>
</svg>
