<svg width="25" height="24" viewBox="0 0 25 24" fill="none" xmlns="http://www.w3.org/2000/svg">
<path d="M8.42551 19.3248C8.42551 19.424 8.31136 19.5034 8.16745 19.5034C8.00368 19.5183 7.88953 19.4389 7.88953 19.3248C7.88953 19.2255 8.00368 19.1461 8.14759 19.1461C8.29648 19.1312 8.42551 19.2106 8.42551 19.3248ZM6.88211 19.1014C6.84737 19.2007 6.94662 19.3148 7.0955 19.3446C7.22453 19.3942 7.37341 19.3446 7.40319 19.2454C7.43297 19.1461 7.33867 19.032 7.18979 18.9873C7.06076 18.9526 6.91684 19.0022 6.88211 19.1014ZM9.07562 19.0171C8.9317 19.0518 8.83245 19.1461 8.84734 19.2603C8.86222 19.3595 8.99125 19.424 9.14014 19.3893C9.28405 19.3545 9.38331 19.2603 9.36842 19.161C9.35353 19.0667 9.21954 19.0022 9.07562 19.0171ZM12.3411 0C5.45781 0 0.192383 5.22573 0.192383 12.109C0.192383 17.6126 3.65635 22.3222 8.60416 23.9798C9.23939 24.0939 9.46271 23.7019 9.46271 23.3793C9.46271 23.0716 9.44782 21.3744 9.44782 20.3322C9.44782 20.3322 5.97393 21.0766 5.24441 18.8533C5.24441 18.8533 4.67867 17.4092 3.86478 17.037C3.86478 17.037 2.72832 16.2578 3.94419 16.2727C3.94419 16.2727 5.1799 16.372 5.85979 17.5531C6.94662 19.4687 8.76793 18.9178 9.4776 18.5903C9.59174 17.7963 9.91432 17.2454 10.2716 16.9179C7.49748 16.6102 4.69852 16.2082 4.69852 11.4341C4.69852 10.0693 5.07568 9.38447 5.86971 8.51103C5.74068 8.18846 5.31885 6.85846 5.99874 5.14136C7.03595 4.81878 9.42301 6.48129 9.42301 6.48129C10.4156 6.20338 11.4825 6.05946 12.5396 6.05946C13.5966 6.05946 14.6636 6.20338 15.6562 6.48129C15.6562 6.48129 18.0432 4.81382 19.0804 5.14136C19.7603 6.86342 19.3385 8.18846 19.2095 8.51103C20.0035 9.38943 20.4898 10.0743 20.4898 11.4341C20.4898 16.2231 17.5668 16.6052 14.7927 16.9179C15.2492 17.3099 15.6363 18.0543 15.6363 19.2205C15.6363 20.893 15.6214 22.9624 15.6214 23.3694C15.6214 23.6919 15.8497 24.084 16.48 23.9699C21.4427 22.3222 24.8074 17.6126 24.8074 12.109C24.8074 5.22573 19.2243 0 12.3411 0ZM5.01613 17.1164C4.95161 17.166 4.9665 17.2801 5.05087 17.3744C5.13027 17.4538 5.24441 17.4886 5.30893 17.424C5.37344 17.3744 5.35856 17.2603 5.27419 17.166C5.19479 17.0866 5.08064 17.0518 5.01613 17.1164ZM4.48016 16.7144C4.44542 16.7789 4.49505 16.8583 4.5943 16.9079C4.6737 16.9576 4.77296 16.9427 4.8077 16.8732C4.84243 16.8087 4.79281 16.7293 4.69355 16.6796C4.5943 16.6499 4.5149 16.6648 4.48016 16.7144ZM6.08807 18.4811C6.00867 18.5456 6.03845 18.6945 6.15259 18.7888C6.26673 18.9029 6.41065 18.9178 6.47516 18.8384C6.53968 18.7739 6.5099 18.625 6.41065 18.5307C6.30147 18.4166 6.15259 18.4017 6.08807 18.4811ZM5.52233 17.7516C5.44292 17.8012 5.44292 17.9302 5.52233 18.0444C5.60173 18.1585 5.73572 18.2082 5.80024 18.1585C5.87964 18.094 5.87964 17.965 5.80024 17.8508C5.73076 17.7367 5.60173 17.6871 5.52233 17.7516Z" fill="#626262"/>
</svg>
