<svg width="24" height="24" viewBox="0 0 24 24" fill="none" xmlns="http://www.w3.org/2000/svg">
<g clip-path="url(#clip0_156_1133)">
<path d="M4.45926 4.20824C5.20526 4.81424 5.48526 4.76824 6.88726 4.67424L20.1023 3.88124C20.3823 3.88124 20.1493 3.60124 20.0563 3.55524L17.8603 1.96824C17.4403 1.64224 16.8793 1.26824 15.8053 1.36124L3.01026 2.29524C2.54426 2.34124 2.45026 2.57524 2.63626 2.76124L4.45926 4.20824ZM5.25226 7.28824V21.1922C5.25226 21.9392 5.62526 22.2192 6.46626 22.1722L20.9893 21.3322C21.8303 21.2862 21.9243 20.7722 21.9243 20.1652V6.35424C21.9243 5.74824 21.6913 5.42124 21.1763 5.46724L5.99926 6.35424C5.43926 6.40124 5.25226 6.68224 5.25226 7.28824ZM19.5893 8.03324C19.6823 8.45324 19.5893 8.87324 19.1693 8.92124L18.4693 9.06124V19.3252C17.8613 19.6522 17.3013 19.8392 16.8343 19.8392C16.0863 19.8392 15.8993 19.6052 15.3393 18.9062L10.7623 11.7202V18.6722L12.2103 19.0002C12.2103 19.0002 12.2103 19.8402 11.0423 19.8402L7.82026 20.0262C7.72726 19.8402 7.82026 19.3732 8.14726 19.2802L8.98726 19.0472V9.85424L7.82226 9.76024C7.72826 9.34024 7.96226 8.73424 8.61526 8.68724L12.0713 8.45424L16.8353 15.7332V9.29324L15.6203 9.15424C15.5273 8.64024 15.9003 8.26724 16.3673 8.22124L19.5893 8.03324ZM1.93626 1.03524L15.2463 0.0552402C16.8803 -0.0847598 17.3013 0.00824022 18.3283 0.75524L22.5773 3.74124C23.2773 4.25424 23.5113 4.39424 23.5113 4.95424V21.3322C23.5113 22.3582 23.1383 22.9662 21.8313 23.0582L6.37326 23.9922C5.39326 24.0392 4.92526 23.8992 4.41126 23.2452L1.28226 19.1852C0.722258 18.4382 0.489258 17.8792 0.489258 17.2252V2.66724C0.489258 1.82824 0.863258 1.12724 1.93626 1.03524Z" fill="#626262"/>
</g>
<defs>
<clipPath id="clip0_156_1133">
<rect width="24" height="24" fill="white"/>
</clipPath>
</defs>
</svg>
