<svg width="25" height="24" viewBox="0 0 25 24" fill="none" xmlns="http://www.w3.org/2000/svg">
<g clip-path="url(#clip0_404_23171)">
<path d="M12.5 0.982511C6.42279 0.982511 1.48251 5.92279 1.48251 12C1.48251 18.0772 6.42279 23.0175 12.5 23.0175C18.5772 23.0175 23.5175 18.0772 23.5175 12C23.5175 5.92279 18.5772 0.982511 12.5 0.982511Z" fill="#626262" stroke="#626262" stroke-width="1.03498"/>
<path d="M15.1554 13.7723L9.58116 12.9666L9.77437 11.7457L15.2252 12.794L15.1554 13.7723Z" fill="white"/>
<path d="M15.254 12.4733L10.3211 10.1713L10.7733 9.1847L15.7062 11.4867L15.254 12.4733Z" fill="white"/>
<path d="M15.9117 11.2401L11.7188 7.74593L12.4176 6.92378L16.6106 10.4179L15.9117 11.2401Z" fill="white"/>
<path d="M13.5275 5.85498L14.3908 5.19727L17.6383 9.55467L16.775 10.2124L13.5275 5.85498Z" fill="white"/>
<path d="M15.1718 15.392H9.41673V14.1587H15.1718V15.392Z" fill="white"/>
<path d="M15.9939 12.9254V16.214H8.59456V12.9254H7.36133V17.4473H17.2272V12.9254H15.9939Z" fill="white"/>
</g>
<defs>
<clipPath id="clip0_404_23171">
<rect width="24" height="24" fill="white" transform="translate(0.5)"/>
</clipPath>
</defs>
</svg>
